<svg width="104" height="123" viewBox="0 0 104 123" fill="none" xmlns="http://www.w3.org/2000/svg">
<path d="M2.70481 69.1569C2.70481 86.7242 1.13365 103.61 2.68293 121H30.8789H66.6499H102C102 105.336 100.818 91.6543 100.818 76.0931C100.818 49.9254 98.7203 20.5724 75.6802 4.89854C68.9365 0.310885 57.4788 2.54283 49.3886 2.54283C44.0057 2.54283 38.0371 5.37487 32.9723 7.25424C26.6487 9.6007 20.7985 11.4167 15.9148 16.6771C4.93105 28.5079 2.70481 53.8304 2.70481 69.1569Z" fill="#E61F5E" stroke="#E61F5E" stroke-width="3" stroke-linecap="round"/>
<path d="M29.179 35.9212C24.1861 33.8795 18.2335 35.4153 15.5121 40.282C15.0932 41.0311 11.4917 47.8276 14.846 49.2467C18.0324 50.5947 21.8901 46.248 25.5048 46.7437C27.5635 47.0259 38.5826 51.0646 39.2075 49.3244C40.9838 44.3774 32.9265 37.4536 29.179 35.9212Z" fill="#E1E1E1" stroke="#E1E1E1" stroke-width="3" stroke-linecap="round"/>
<path d="M68.7159 33.1055C64.1024 31.4489 56.9827 32.0432 53.757 38.9762C53.757 38.9762 49.9049 48.1594 52.0099 48.8516C56.0192 50.17 59.8873 44.082 63.9925 43.5915C67.4699 43.176 71.9662 45.5145 75.2578 46.6964C78.656 47.9166 77.7139 43.7764 76.9581 41.9612C75.5083 38.4793 72.37 34.4175 68.7159 33.1055Z" fill="#E1E1E1" stroke="#E1E1E1" stroke-width="3" stroke-linecap="round"/>
<path d="M21.3523 47.7606C22.1489 47.3825 22.9525 47.4766 23.7413 47.0186C24.7019 47.0383 24.3537 46.484 23.9496 44.9605C23.2493 42.3194 23.8509 38.5285 22.9029 36.0526C23.4118 34.6356 20.0455 35.706 19.1038 36.2882C16.3756 37.9749 15.0893 40.3226 14.2095 42.5296C12.8272 45.9972 11.4463 49.7996 16.8747 49.8856C18.3795 49.9094 19.9952 48.4046 21.3523 47.7606Z" fill="#9E0434" stroke="#9E0434" stroke-width="3" stroke-linecap="round"/>
<path d="M59.5732 46.2916C60.2524 45.7292 62.4571 44.4802 63.1089 43.8424C60.3819 45.5194 62.1126 45.1496 61.3464 43.7723C60.018 41.3845 58.6448 38.5207 58.5847 34.2491C59.2606 32.3667 55.2863 35.7621 54.5167 36.558C52.287 38.8638 51.6176 41.4557 51.3075 43.8113C50.8204 47.5123 49.6446 50.1251 54.9275 48.8735C56.3919 48.5265 58.4162 47.2496 59.5732 46.2916Z" fill="#9E0434" stroke="#9E0434" stroke-width="3" stroke-linecap="round"/>
<ellipse cx="43.7045" cy="62.3751" rx="4.5" ry="7" transform="rotate(19.7515 43.7045 62.3751)" fill="#9E0434"/>
</svg>
