<svg width="106" height="129" viewBox="0 0 106 129" fill="none" xmlns="http://www.w3.org/2000/svg">
<path d="M2.71891 72.543C2.71891 90.996 1.11632 108.733 2.69659 127H31.4565H67.9429H104C104 110.546 102.794 96.1747 102.794 79.8289C102.794 52.3418 100.655 21.5088 77.1538 5.04468C70.2753 0.22572 58.5884 2.5702 50.3363 2.5702C44.8458 2.5702 38.7578 5.54503 33.5917 7.51916C27.1417 9.98393 21.1744 11.8915 16.1931 17.4171C4.98967 29.8444 2.71891 56.4437 2.71891 72.543Z" fill="#A7A900" stroke="#A7A900" stroke-width="3" stroke-linecap="round"/>
<path d="M48.7235 41.1127C42.35 42.8855 36.2127 43.7728 29.5498 43.7728C29.0265 43.424 28.9678 44.8646 29.0118 45.0954C29.5956 48.1605 29.7566 51.5362 31.9782 53.9799C36.0389 58.4466 43.3663 58.3363 48.2453 55.6089C54.1211 52.3242 54.7994 46.4295 52.482 40.5075C52.2067 39.8039 49.1501 40.9941 48.7235 41.1127Z" fill="#E1E1E1" stroke="#E1E1E1" stroke-width="3" stroke-linecap="round"/>
<path d="M90.2739 43.3846C83.2622 43.3846 70.7739 39.3846 66.9408 40.4103C63.4193 42.1711 65.8997 48.7644 67.2739 50.8846C71.3864 57.2296 86.7579 59.8148 90.2739 53.8006C91.6027 51.5277 94.0173 43.3846 90.2739 43.3846Z" fill="#E1E1E1" stroke="#E1E1E1" stroke-width="3" stroke-linecap="round"/>
<ellipse cx="58.7739" cy="62.3846" rx="5.5" ry="6" fill="#5B570D"/>
<path d="M44.2739 50.8846C43.7296 48.0442 43.5484 45.3074 43.3665 42.5111C49.6116 40.9341 51.9167 39.782 53.1367 41.2058C54.2644 43.1366 54.4268 45.6313 54.4268 45.6313C54.8396 49.9395 54.1423 49.5644 53.1628 51.8281C52.7202 52.851 45.525 57.7012 45.1264 56.586C44.525 54.9033 44.6264 52.7238 44.2739 50.8846Z" fill="#5B570D" stroke="#5B570D" stroke-width="3" stroke-linecap="round"/>
<path d="M80.078 51.4779C80.9493 48.7202 81.6047 44.9312 82.7739 42.3846C88.7739 42.8846 90.2739 42.3846 91.7739 43.8846C93.5402 46.1221 91.5075 51.6824 91.5075 51.6824C89.8228 55.6689 89.4345 55.0882 87.2739 56.3846C84.7739 57.8846 76.7739 57.3846 77.7739 56.3846C78.2739 54.8846 79.5137 53.2636 80.078 51.4779Z" fill="#5B570D" stroke="#5B570D" stroke-width="3" stroke-linecap="round"/>
</svg>
