<svg width="1200" height="867" viewBox="0 0 1200 867" fill="none" xmlns="http://www.w3.org/2000/svg">
<g style="mix-blend-mode:color-dodge">
<path d="M-234.75 332.645C-238.146 287.974 -261.551 242.144 -260.61 195.376C-260.161 173.072 -264.333 160.458 -247.617 167.087C-163.53 200.437 -135.535 208.26 -43.4664 215.861C92.205 227.061 56.2664 329.119 190.75 326.178C214.152 325.667 331.483 347.426 380.512 344.008C425.062 337.999 595.486 143.925 640.916 146.594C683.107 136.003 890.336 229.802 950.928 185.728C1021.78 261.146 1202.21 -21.3496 1263.09 -41.9946C1325.61 -63.1949 1326.83 -49.9136 1386.13 -40.6005C1403.73 -37.8364 1326.24 91.5431 1299.72 130.342C1321.25 110.509 1378.19 67.2147 1385.07 63.9966C1399.8 57.1027 1327.93 271.345 1327.73 282.74C1328.67 289.903 1328.55 291.148 1327.73 282.955C1327.73 282.894 1327.73 282.822 1327.73 282.74C1324.07 255.049 1304.43 138.927 1247.18 137.774C1219.44 137.215 1052.67 235.728 1026.75 227.925C921.93 196.374 868.935 232.234 760.156 211.457C690.241 198.104 660.844 290.751 593.042 315.344C500.742 348.823 376.629 418.385 276.343 394.018C168.045 367.704 105.265 286.252 -9.56278 283.94C-38.3572 283.36 -84.4501 290.027 -73.1456 307.842C-58.307 331.227 -171.218 362.182 -196.163 359.397C-244.668 353.981 -261.347 362.185 -234.75 332.645Z" fill="white" fill-opacity="0.26"/>
</g>
<g style="mix-blend-mode:color-dodge">
<path d="M-201.788 627.257C-194.51 673.465 -163.426 714.478 -152.246 757.86C-173.248 791.608 -158.268 780.605 -109.564 777.427C-84.5177 775.793 21.211 725.509 2.49999 705.09C-11.7547 689.534 57.1559 691.241 85.6054 686.76C199.058 668.89 250.452 721.709 361.687 728.615C464.693 735.01 617.435 680.636 702.43 631.483C764.866 595.376 841.771 595.99 912.944 596.871C1023.68 598.24 1181.58 591.986 1290.31 604.658C1317.19 607.792 1293.66 637.543 1321.06 633.227C1392.26 622.013 1388.19 473.367 1377.29 434.817C1374.96 426.6 1323.47 406.096 1310.08 415.535C1302.57 420.829 1290.77 419.834 1288.89 428.968C1283.56 454.836 1182.77 458.817 1160.53 459.275C1100.51 460.511 1031.44 455.615 973.607 487.455C917.292 518.461 875.204 571.533 809.416 574.067C804.396 574.26 783.346 578.485 775.409 579.423C730.215 584.766 520.247 670.898 479.775 658.306C457.077 651.243 288.469 672.234 265.52 676.844C133.638 703.332 155.643 619.073 20.1114 631.849C-71.8627 640.52 -105.326 615.208 -193.96 597.128C-211.58 593.534 -205.259 605.22 -201.788 627.257Z" fill="white" fill-opacity="0.26"/>
</g>
</svg>
